<svg width="118" height="118" viewBox="0 0 118 118" fill="none" xmlns="http://www.w3.org/2000/svg">
<circle cx="59" cy="59" r="59" fill="#FFE066"/>
<path d="M79.2302 31.5508H37.7686C34.9063 31.5508 32.5859 33.8712 32.5859 36.7335V51.245C32.5859 65.3135 39.4063 73.8467 45.128 78.5293C51.2721 83.554 57.4214 85.2668 57.6805 85.342C58.2168 85.4871 58.782 85.4871 59.3183 85.342C59.5774 85.2694 65.7267 83.554 71.8708 78.5293C77.5925 73.8467 84.4129 65.3135 84.4129 51.245V36.7335C84.4129 33.8712 82.0925 31.5508 79.2302 31.5508ZM78.1936 51.245C78.1936 60.4987 74.8016 68.0085 68.1107 73.5695C65.2428 75.936 61.9925 77.7965 58.4994 79.0709C55.006 77.7971 51.7556 75.9366 48.8881 73.5695C42.1972 68.0085 38.8052 60.4987 38.8052 51.245V37.77H78.1936V51.245ZM45.934 59.6643C44.2384 57.9687 45.0142 55.0734 47.3304 54.4528C48.4054 54.1648 49.5523 54.4721 50.3393 55.259L54.3532 59.2782L66.6647 46.9641C68.3603 45.2685 71.2556 46.0443 71.8762 48.3605C72.1643 49.4355 71.8569 50.5825 71.07 51.3694L56.5585 65.8809C55.3432 67.1004 53.3684 67.1004 52.1532 65.8809L45.934 59.6643Z" fill="white"/>
</svg>
