<svg width="118" height="118" viewBox="0 0 118 118" fill="none" xmlns="http://www.w3.org/2000/svg">
<circle cx="59" cy="59" r="59" fill="#FFE066"/>
<path d="M89 55.1977C88.991 46.6957 82.1707 39.8056 73.7547 39.7966C73.2729 39.7966 72.791 39.8241 72.3146 39.8681C67.3355 29.1322 52.7193 27.8675 46.0054 37.5916C45.5083 38.3116 45.0731 39.0732 44.7044 39.8681C44.228 39.8241 43.7461 39.7966 43.2643 39.7966C31.5285 39.7995 24.1967 52.6356 30.0671 62.9015C31.6136 65.6061 33.9375 67.7717 36.7306 69.111V81.5997C36.7306 84.03 38.6807 86.0001 41.0864 86H75.9327C78.3382 85.9999 80.2884 84.0298 80.2884 81.5997V69.111C85.6041 66.5571 88.9933 61.144 89 55.1977ZM65.1085 63.4648L67.2864 54.6642C67.7209 53.0283 69.7453 52.481 70.9304 53.679C71.4616 54.216 71.6813 54.9917 71.5115 55.7312L69.3336 64.5319C69.0913 65.5113 68.2204 66.1984 67.2211 66.1985C67.0422 66.1983 66.8639 66.1761 66.6902 66.1325C65.5247 65.8365 64.8169 64.6426 65.1085 63.4648ZM56.3316 55.1977C56.3316 53.504 58.1465 52.4455 59.5985 53.2923C60.2723 53.6853 60.6874 54.4117 60.6874 55.1977V63.9984C60.6874 65.6921 58.8725 66.7506 57.4206 65.9038C56.7467 65.5107 56.3316 64.7844 56.3316 63.9984V55.1977ZM47.0919 53.0635C48.2586 52.7691 49.4408 53.4856 49.7326 54.6642L51.9105 63.4648C52.202 64.6435 51.4927 65.8377 50.3261 66.1325C50.148 66.1772 49.9651 66.1994 49.7816 66.1985C48.7834 66.1971 47.9139 65.5103 47.6718 64.5319L45.4939 55.7312C45.2032 54.5484 45.9198 53.3521 47.0919 53.0635ZM75.9327 81.5997H41.0864V70.4393C41.8075 70.5455 42.5355 70.5988 43.2643 70.5989H73.7547C74.4835 70.5988 75.2115 70.5455 75.9327 70.4393V81.5997Z" fill="white"/>
</svg>
