<svg width="118" height="118" viewBox="0 0 118 118" fill="none" xmlns="http://www.w3.org/2000/svg">
<circle cx="59" cy="59" r="59" fill="#FFE066"/>
<g clip-path="url(#clip0_3738_1359)">
<path d="M52.3189 42.5699C49.8577 40.1037 45.6681 41.029 44.4745 44.3024L31.8417 79.051C30.7147 82.1519 33.0012 85.4329 36.3005 85.4492C36.862 85.4482 37.4191 85.3488 37.9464 85.1557L72.695 72.5229C75.9718 71.3338 76.9026 67.1428 74.4372 64.6785L52.3189 42.5699ZM49.8814 74.6716L42.3258 67.116L44.7681 60.4002L56.5972 72.2293L49.8814 74.6716ZM40.1553 73.1052L43.8922 76.8493L38.0089 78.9884L40.1553 73.1052ZM62.5888 70.0492L46.9482 54.4086L49.3544 47.7722L69.2228 67.643L62.5888 70.0492ZM55.6107 40.2117V34.4367C55.6107 32.2139 58.0169 30.8247 59.9419 31.9361C60.8353 32.4519 61.3857 33.4051 61.3857 34.4367V40.2117C61.3857 42.4345 58.9794 43.8238 57.0544 42.7124C56.161 42.1966 55.6107 41.2433 55.6107 40.2117ZM83.6387 60.3063C85.2131 61.8808 84.4928 64.5693 82.342 65.1456C81.3438 65.4131 80.2788 65.1277 79.548 64.3969L75.698 60.5469C74.1236 58.9725 74.8439 56.284 76.9947 55.7077C77.9929 55.4402 79.0579 55.7256 79.7887 56.4563L83.6387 60.3063ZM83.4726 50.65L77.6976 52.575C75.5887 53.278 73.5097 51.4344 73.9554 49.2566C74.1622 48.2459 74.8925 47.4222 75.8713 47.096L81.6463 45.171C83.7552 44.468 85.8342 46.3116 85.3885 48.4894C85.1817 49.5002 84.4513 50.3238 83.4726 50.65ZM62.4925 46.4511C63.2698 42.0092 66.5326 39.2492 71.0107 39.2492C72.5627 39.2492 73.1017 38.6501 73.4169 38.0654C73.6974 37.5264 73.8614 36.9345 73.8982 36.328V36.3617C73.8982 34.1389 76.3044 32.7497 78.2294 33.8611C79.1228 34.3769 79.6732 35.3301 79.6732 36.3617C79.6732 39.8436 77.3656 45.0242 71.0107 45.0242C69.822 45.0242 68.5539 45.3106 68.1809 47.4449C67.9402 48.8265 66.7415 49.8353 65.3391 49.8367C65.1714 49.8364 65.0039 49.8219 64.8386 49.7934C63.2678 49.5183 62.2174 48.0219 62.4925 46.4511Z" fill="white"/>
</g>
<defs>
<clipPath id="clip0_3738_1359">
<rect width="55" height="55" fill="white" transform="translate(31 31)"/>
</clipPath>
</defs>
</svg>
